Coordinates
version=1
nRows=13
nColumns=22
inDegrees=yes

Units are S.I. units (second, meters, Newtons, ...)
If the header above contains a line with 'inDegrees', this indicates whether rotational values are in degrees (yes) or radians (no).

endheader
time	pelvis_tilt	pelvis_list	pelvis_rotation	pelvis_tx	pelvis_ty	pelvis_tz	hip_flexion_r	hip_adduction_r	hip_rotation_r	knee_angle_r	ankle_angle_r	subtalar_angle_r	hip_flexion_l	hip_adduction_l	hip_rotation_l	knee_angle_l	ankle_angle_l	subtalar_angle_l	lumbar_extension	lumbar_bending	lumbar_rotation
      1.27000000	      3.77626455	     -4.05939275	     -4.09082288	      1.03661368	      0.92778923	      0.20789491	      0.48076184	      6.69292014	     -3.03172427	    -12.87754463	      3.92041417	      0.53066730	      1.48881080	     -8.22605066	    -11.24764747	    -17.40307873	      8.92485465	      0.35484131	     -5.53492759	     -0.26748093	      5.68249436
      1.28000000	      3.85463411	     -4.06430979	     -4.08981624	      1.03618195	      0.92784682	      0.20785753	      0.46166938	      6.69352982	     -3.03247170	    -12.94700342	      3.95365493	      0.49614244	      1.45557390	     -8.22888927	    -11.24480885	    -17.44775513	      8.92358924	      0.35079463	     -5.56820822	     -0.25729333	      5.67721582
      1.29000000	      3.90999758	     -4.06375490	     -4.08766254	      1.03572773	      0.92788504	      0.20781544	      0.46711650	      6.69165268	     -3.00610699	    -13.01238801	      3.95006858	      0.48638581	      1.44540129	     -8.22490709	    -11.22935696	    -17.48049283	      8.91650088	      0.34909181	     -5.57640309	     -0.25034839	      5.66275475
      1.30000000	      3.97086727	     -4.06313188	     -4.08413668	      1.03525141	      0.92792862	      0.20777383	      0.47475308	      6.68861499	     -2.99295779	    -13.08988388	      3.95434115	      0.47394953	      1.43349366	     -8.22236612	    -11.22168192	    -17.51949110	      8.90641994	      0.34609435	     -5.59476332	     -0.24386358	      5.65439506
      1.31000000	      4.03582499	     -4.06094667	     -4.07751827	      1.03476209	      0.92797914	      0.20773615	      0.48223039	      6.68383625	     -2.99377842	    -13.17457724	      3.96575770	      0.45628643	      1.41916514	     -8.21925822	    -11.22387648	    -17.55815433	      8.89447708	      0.34094086	     -5.61978775	     -0.24037119	      5.65263250
      1.32000000	      4.10407966	     -4.05653425	     -4.07385229	      1.03426484	      0.92803423	      0.20771231	      0.48811121	      6.67670416	     -3.00569546	    -13.26168586	      3.98255739	      0.43109123	      1.40125177	     -8.21422481	    -11.23173616	    -17.59674531	      8.88073230	      0.33279591	     -5.64899588	     -0.24013204	      5.65818855
      1.33000000	      4.18937542	     -4.04231589	     -4.07421996	      1.03379442	      0.92811369	      0.20770357	      0.47583615	      6.65564702	     -3.05782918	    -13.35173154	      4.03528497	      0.35436755	      1.35533368	     -8.19894986	    -11.27268298	    -17.62011111	      8.86207861	      0.30596946	     -5.69213116	     -0.25379411	      5.68225378
      1.34000000	      4.24893914	     -4.03950441	     -4.07765658	      1.03327896	      0.92816411	      0.20773761	      0.48204536	      6.65725384	     -3.03711976	    -13.41931945	      4.03141549	      0.33174360	      1.34562281	     -8.19648738	    -11.25587822	    -17.65768327	      8.85000175	      0.29848795	     -5.71110089	     -0.25561618	      5.68913786
      1.35000000	      4.33276991	     -4.03444084	     -4.09599211	      1.03279484	      0.92824592	      0.20781582	      0.46917854	      6.65230196	     -3.06830927	    -13.50585885	      4.06234332	      0.23867204	      1.29987890	     -8.19582012	    -11.30513009	    -17.68772631	      8.83120551	      0.26941662	     -5.75208060	     -0.26623365	      5.73246762
      1.36000000	      4.39123238	     -4.03298634	     -4.10548257	      1.03227938	      0.92829374	      0.20790851	      0.47258160	      6.65869418	     -3.04757177	    -13.56632434	      4.05813723	      0.21562189	      1.29148322	     -8.19857405	    -11.28805623	    -17.72925428	      8.82042399	      0.26328257	     -5.76688160	     -0.27205924	      5.74938290
      1.37000000	      4.46013714	     -4.03512306	     -4.12179904	      1.03176952	      0.92835358	      0.20802490	      0.47337873	      6.66663656	     -3.04736085	    -13.64616583	      4.06293844	      0.17391028	      1.27056157	     -8.20829457	    -11.30251208	    -17.77386715	      8.80555924	      0.25323382	     -5.79214511	     -0.27601223	      5.78977932
      1.38000000	      4.54841386	     -4.03369563	     -4.17081218	      1.03134043	      0.92844445	      0.20822031	      0.43899459	      6.67053061	     -3.04856124	    -13.71004273	      4.09979375	      0.03713531	      1.20037572	     -8.21781528	    -11.40312153	    -17.79016096	      8.79681858	      0.22441060	     -5.82297238	     -0.29168211	      5.85720094
      1.39000000	      4.60632922	     -4.03389322	     -4.18811951	      1.03084632	      0.92849174	      0.20839105	      0.43832483	      6.68186081	     -3.02688049	    -13.76600319	      4.09192837	      0.01522447	      1.18793402	     -8.22629186	    -11.38348168	    -17.83071834	      8.78516482	      0.22023450	     -5.82918287	     -0.30358688	      5.87562461
